<?xml version="1.0" encoding="UTF-8" standalone="no"?>
<!DOCTYPE svg PUBLIC "-//W3C//DTD SVG 1.1//EN" "http://www.w3.org/Graphics/SVG/1.1/DTD/svg11.dtd">
<svg width="100%" height="100%" viewBox="0 0 170 200" version="1.1" xmlns="http://www.w3.org/2000/svg" xmlns:xlink="http://www.w3.org/1999/xlink" xml:space="preserve" xmlns:serif="http://www.serif.com/" style="fill-rule:evenodd;clip-rule:evenodd;stroke-linecap:round;stroke-linejoin:round;stroke-miterlimit:1.5;">
    <g transform="matrix(1,0,0,1,-199,0)">
        <g id="cup" transform="matrix(0.944444,0,0,1,-8.77778,0)">
            <rect x="220" y="0" width="180" height="200" style="fill:none;"/>
            <g id="Layer2" transform="matrix(1.05882,0,0,1,-28.8235,5)">
                <g transform="matrix(0.833333,0,0,0.860963,53.3333,-4.97326)">
                    <path d="M260,180L380,180" style="fill:none;stroke:black;stroke-width:21.24px;"/>
                </g>
                <g transform="matrix(0.833333,0,0,0.860963,53.3333,25.4474)">
                    <path d="M320,144.667L320,80" style="fill:none;stroke:black;stroke-width:21.24px;"/>
                </g>
                <g transform="matrix(1,0,0,1,0,-40)">
                    <path d="M370,80C370,107.596 347.596,130 320,130C292.404,130 270,107.596 270,80" style="fill:none;stroke:black;stroke-width:18px;"/>
                </g>
                <path d="M270,40L370,40" style="fill:none;stroke:black;stroke-width:18px;"/>
            </g>
        </g>
    </g>
</svg>
